<svg width="2500" height="637" viewBox="0 0 2500 637" fill="none" xmlns="http://www.w3.org/2000/svg">
<g clip-path="url(#clip0_1_2)">
<path d="M21.7001 193.7V443.3C21.7001 458.6 30.6001 473.9 43.4001 481.5L259.9 606.3C273.9 613.9 290.5 613.9 304.5 606.3L521 481.5C535 473.9 542.7 458.6 542.7 443.3V193.7C542.7 178.4 533.8 163.1 521 155.5L304.4 30.7C290.4 23.1 273.8 23.1 259.8 30.7L43.3001 155.5C29.3001 163.1 21.7001 178.4 21.7001 193.7Z" fill="#213147"/>
<path d="M329.9 366.9L299.3 451C298 453.5 298 456.1 299.3 458.6L352.8 603.8L413.9 568.1L340 366.9C338.8 361.8 332.4 361.8 329.9 366.9Z" fill="#12AAFF"/>
<path d="M391 224.3C389.7 219.2 383.4 219.2 380.8 224.3L350.2 308.4C348.9 310.9 348.9 313.5 350.2 316L436.8 554.2L497.9 518.5L391 224.3Z" fill="#12AAFF"/>
<path d="M281.5 39.6C282.8 39.6 284 39.6 285.3 40.9L519.6 175.9C522.1 177.2 523.4 179.7 523.4 183.5V453.5C523.4 456 522.1 459.9 519.6 461.1L285.3 596.1C284 597.4 282.8 597.4 281.5 597.4C280.2 597.4 279 597.4 277.7 596.1L43.4001 461.1C40.9001 459.8 39.6 457.3 39.6 453.5V183.5C39.6 181 40.9001 177.1 43.4001 175.9L277.7 40.9C278.9 39.6 280.2 39.6 281.5 39.6ZM281.5 0.100006C272.6 0.100006 264.9 2.60001 257.3 6.50001L23 141.5C7.70005 150.4 -1.19995 165.7 -1.19995 183.5V453.5C-1.19995 470.1 7.70005 486.6 23 495.5L257.3 630.5C264.9 634.3 272.6 636.9 281.5 636.9C290.4 636.9 298.1 634.4 305.7 630.5L540 495.5C555.3 486.6 564.2 471.3 564.2 453.5V183.5C564.2 166.9 555.3 150.4 540 141.5L306.9 6.50001C299.3 2.70001 291.6 0.100006 282.7 0.100006H281.5Z" fill="#9DCCED"/>
<path d="M127.4 554.1L149 495.5L192.3 531.2L151.6 569.4L127.4 554.1Z" fill="#213147"/>
<path d="M262.4 164.4H202.5C198.7 164.4 193.6 166.9 192.3 170.8L65 519.7L126.1 555.4L266.2 172C267.5 168.2 264.9 164.4 261.1 164.4H262.4Z" fill="white"/>
<path d="M365.5 164.4H305.6C301.8 164.4 296.7 166.9 295.4 170.8L150.3 568.1L211.4 603.8L369.3 170.8C370.6 167 368 163.2 364.2 163.2L365.5 164.4Z" fill="white"/>
<path d="M816.4 237C822.8 237 827.9 238.3 831.7 240.8C835.5 243.3 839.3 248.4 843.2 254.8L920.9 394.9C922.2 396.2 922.2 397.4 920.9 398.7C920.9 400 919.6 400 917.1 400H887.8C885.3 400 884 398.7 882.7 397.5L866 366.9H756.5L739.9 397.5C738.6 400 737.4 400 734.8 400H704.2C701.7 400 700.4 400 700.4 398.7C700.4 397.4 700.4 396.2 700.4 394.9L776.8 254.8C780.6 247.2 784.4 243.3 788.3 240.8C792.2 238.3 795.9 237 801 237H815H816.4ZM770.5 340.2H850.7L813.8 271.4C812.5 270.1 812.5 270.1 811.3 270.1H810C808.7 270.1 807.5 270.1 807.5 271.4L770.5 340.2Z" fill="white"/>
<path d="M1090.2 237C1108 237 1120.8 240.8 1128.4 249.7C1136 257.3 1139.9 270.1 1139.9 285.4V298.1C1139.9 312.1 1137.4 322.3 1132.3 329.9C1127.2 337.5 1118.3 342.6 1105.6 345.2L1145.1 394.9C1146.4 396.2 1146.4 397.4 1146.4 398.7C1146.4 400 1145.1 401.2 1142.6 401.2H1112C1109.5 401.2 1108.2 401.2 1108.2 399.9C1106.9 399.9 1106.9 398.6 1105.7 397.4L1068.8 349H993.7V396.1C993.7 399.9 992.4 401.2 988.6 401.2H963.1C959.3 401.2 958 399.9 958 396.1V244.6C958 239.5 960.5 237 965.6 237H1091.7H1090.2ZM993.4 321H1082.5C1090.1 321 1096.5 319.7 1099.1 315.9C1102.9 312.1 1104.2 307 1104.2 300.6V290.4C1104.2 282.8 1102.9 277.7 1099.1 275.1C1095.3 271.3 1090.2 270 1082.5 270H995.9C993.4 270 993.4 271.3 993.4 272.5V321Z" fill="white"/>
<path d="M1336 237C1352.6 237 1364 240.8 1370.4 247.2C1376.8 253.6 1380.6 263.8 1380.6 276.5V288C1380.6 300.7 1375.5 310.9 1365.3 317.3C1375.5 323.7 1381.9 333.9 1381.9 347.9V361.9C1381.9 368.3 1380.6 373.4 1379.4 378.5C1378.2 383.6 1375.6 387.4 1373 391.2C1369.2 395 1365.4 397.6 1360.3 398.8C1355.2 400.1 1348.8 401.3 1341.2 401.3H1202.4C1197.3 401.3 1194.8 398.8 1194.8 393.7V244.7C1194.8 239.6 1197.3 237.1 1202.4 237.1H1337.4H1336V237ZM1230.3 304.5H1325.8C1333.4 304.5 1338.5 303.2 1341.1 300.7C1343.7 298.2 1344.9 295.6 1344.9 290.5V282.9C1344.9 277.8 1343.6 274 1341.1 272.7C1338.6 270.2 1333.5 268.9 1328.4 268.9H1232.9C1230.4 268.9 1230.4 270.2 1230.4 271.4V304.5H1230.3ZM1230.3 330V364.4C1230.3 366.9 1231.6 366.9 1232.8 366.9H1328.3C1334.7 366.9 1338.5 365.6 1341 363.1C1343.5 360.6 1344.8 356.7 1344.8 352.9V344C1344.8 338.9 1343.5 335.1 1341 332.5C1338.5 329.9 1333.4 328.7 1324.4 328.7H1229L1230.3 330Z" fill="white"/>
<path d="M1468.4 237C1472.2 237 1473.5 238.3 1473.5 242.1V394.9C1473.5 398.7 1472.2 400 1468.4 400H1442.9C1439.1 400 1437.8 398.7 1437.8 394.9V242.1C1437.8 238.3 1439.1 237 1442.9 237H1468.4Z" fill="white"/>
<path d="M1714.2 237C1718 237 1719.3 238.3 1719.3 242.1V265C1719.3 268.8 1718 270.1 1714.2 270.1H1640.3V394.9C1640.3 398.7 1639 400 1635.2 400H1609.7C1605.9 400 1604.6 398.7 1604.6 394.9V270.1H1530.7C1526.9 270.1 1525.6 268.8 1525.6 265V242.1C1525.6 238.3 1526.9 237 1530.7 237H1712.8H1714.2Z" fill="white"/>
<path d="M1898.9 237C1916.7 237 1929.5 240.8 1937.1 249.7C1944.7 257.3 1948.6 270.1 1948.6 285.4V298.1C1948.6 312.1 1946.1 322.3 1941 329.9C1935.9 337.5 1927 342.6 1914.3 345.2L1953.8 394.9C1955.1 396.2 1955.1 397.4 1955.1 398.7C1955.1 400 1953.8 401.2 1951.3 401.2H1920.7C1918.2 401.2 1916.9 401.2 1916.9 399.9C1915.6 399.9 1915.6 398.6 1914.4 397.4L1877.5 349H1802.4V396.1C1802.4 399.9 1801.1 401.2 1797.3 401.2H1771.8C1768 401.2 1766.7 399.9 1766.7 396.1V244.6C1766.7 239.5 1769.2 237 1774.3 237H1900.4H1898.9ZM1802.1 321H1891.2C1898.8 321 1905.2 319.7 1907.8 315.9C1911.6 312.1 1912.9 307 1912.9 300.6V290.4C1912.9 282.8 1911.6 277.7 1907.8 275.1C1904 271.3 1898.9 270 1891.2 270H1804.6C1802.1 270 1802.1 271.3 1802.1 272.5V321Z" fill="white"/>
<path d="M2030.1 237C2033.9 237 2035.2 238.3 2035.2 242.1V335.1C2035.2 341.5 2035.2 346.6 2036.5 350.4C2037.8 354.2 2039 358 2041.6 360.6C2044.2 363.2 2046.7 364.4 2050.5 365.7C2054.3 367 2059.4 367 2065.8 367H2130.8C2137.2 367 2142.3 367 2146.1 365.7C2149.9 364.4 2153.7 363.2 2155 360.6C2157.5 358.1 2158.8 354.2 2160.1 350.4C2161.4 346.6 2161.4 341.5 2161.4 335.1V242.1C2161.4 238.3 2162.7 237 2166.5 237H2192C2195.8 237 2197.1 238.3 2197.1 242.1V338.9C2197.1 350.4 2195.8 359.3 2193.3 366.9C2190.8 374.5 2186.9 380.9 2181.8 386C2176.7 391.1 2170.3 394.9 2161.4 396.2C2152.5 398.7 2143.6 400 2130.8 400H2063.3C2051.8 400 2041.6 398.7 2032.7 396.2C2025.1 393.7 2017.4 389.8 2012.3 386C2007.2 380.9 2003.4 374.5 2000.8 366.9C1998.3 359.3 1997 349.1 1997 338.9V242.1C1997 238.3 1998.3 237 2002.1 237H2027.6H2030.1Z" fill="white"/>
<path d="M2297.5 237C2301.3 237 2303.9 237 2306.4 238.3C2308.9 238.3 2311.5 239.6 2312.8 240.8C2314.1 242.1 2316.6 243.3 2317.9 245.9C2319.2 248.4 2320.4 251 2323 254.8L2371.4 366.9C2372.7 368.2 2372.7 369.4 2375.2 369.4H2377.7C2379 369.4 2380.2 368.1 2381.5 366.9L2429.9 254.8C2431.2 251 2432.4 248.4 2435 245.9C2436.3 243.4 2437.5 242.1 2440.1 240.8C2441.4 239.5 2443.9 238.3 2446.5 238.3C2449.1 238.3 2451.6 237 2455.4 237H2480.9C2488.5 237 2494.9 238.3 2497.5 242.1C2500 245.9 2501.3 252.3 2501.3 261.2V394.9C2501.3 398.7 2500 400 2496.2 400H2472C2468.2 400 2466.9 398.7 2466.9 394.9V272.7C2466.9 271.4 2465.6 270.2 2465.6 270.2H2463.1C2461.8 270.2 2460.6 271.5 2460.6 271.5L2413.5 375.9C2412.2 379.7 2409.7 383.5 2407.1 386.1C2404.5 388.7 2403.3 391.2 2400.7 393.7C2398.2 395 2395.6 397.5 2393.1 397.5C2390.6 398.8 2386.7 398.8 2382.9 398.8H2371.4C2367.6 398.8 2363.8 398.8 2361.2 397.5C2358.6 396.2 2356.1 395 2353.6 393.7C2351.1 392.4 2349.8 389.9 2347.2 386.1C2344.7 383.6 2343.4 379.7 2340.8 375.9L2293.7 271.5C2293.7 270.2 2292.4 270.2 2291.2 270.2H2288.7C2287.4 270.2 2287.4 271.5 2287.4 272.7V395C2287.4 398.8 2286.1 400.1 2282.3 400.1H2258C2254.2 400.1 2252.9 398.8 2252.9 395V261.2C2252.9 252.3 2254.2 245.9 2256.7 242.1C2259.2 238.3 2265.6 237 2273.3 237H2298.8H2297.5Z" fill="white"/>
</g>
<defs>
<clipPath id="clip0_1_2">
<rect width="2500" height="637" fill="white"/>
</clipPath>
</defs>
</svg>
